<mxfile host="app.diagrams.net" agent="Mozilla/5.0 (Macintosh; Intel Mac OS X 10_15_7) AppleWebKit/537.36 (KHTML, like Gecko) Chrome/126.0.0.0 Safari/537.36" version="25.0.3">
  <diagram name="Page-1" id="SR3AYYOm4cRY8zpF-ioq">
    <mxGraphModel dx="1807" dy="1064" grid="1" gridSize="10" guides="1" tooltips="1" connect="1" arrows="1" fold="1" page="1" pageScale="1" pageWidth="850" pageHeight="1100" math="0" shadow="0">
      <root>
        <mxCell id="0" />
        <mxCell id="1" parent="0" />
        <mxCell id="iIbDxP8CMEq-jojsq5NS-1" value="Request" style="shape=table;startSize=30;container=1;collapsible=0;childLayout=tableLayout;strokeColor=default;fontSize=16;" parent="1" vertex="1">
          <mxGeometry x="120" y="160" width="700" height="370" as="geometry" />
        </mxCell>
        <mxCell id="iIbDxP8CMEq-jojsq5NS-2" value="" style="shape=tableRow;horizontal=0;startSize=0;swimlaneHead=0;swimlaneBody=0;strokeColor=inherit;top=0;left=0;bottom=0;right=0;collapsible=0;dropTarget=0;fillColor=none;points=[[0,0.5],[1,0.5]];portConstraint=eastwest;fontSize=16;" parent="iIbDxP8CMEq-jojsq5NS-1" vertex="1">
          <mxGeometry y="30" width="700" height="60" as="geometry" />
        </mxCell>
        <mxCell id="iIbDxP8CMEq-jojsq5NS-3" value="&lt;div&gt;Название параметра&lt;br&gt;&lt;/div&gt;" style="shape=partialRectangle;html=1;whiteSpace=wrap;connectable=0;strokeColor=inherit;overflow=hidden;fillColor=none;top=0;left=0;bottom=0;right=0;pointerEvents=1;fontSize=16;" parent="iIbDxP8CMEq-jojsq5NS-2" vertex="1">
          <mxGeometry width="160" height="60" as="geometry">
            <mxRectangle width="160" height="60" as="alternateBounds" />
          </mxGeometry>
        </mxCell>
        <mxCell id="iIbDxP8CMEq-jojsq5NS-4" value="Тип данных" style="shape=partialRectangle;html=1;whiteSpace=wrap;connectable=0;strokeColor=inherit;overflow=hidden;fillColor=none;top=0;left=0;bottom=0;right=0;pointerEvents=1;fontSize=16;" parent="iIbDxP8CMEq-jojsq5NS-2" vertex="1">
          <mxGeometry x="160" width="160" height="60" as="geometry">
            <mxRectangle width="160" height="60" as="alternateBounds" />
          </mxGeometry>
        </mxCell>
        <mxCell id="iIbDxP8CMEq-jojsq5NS-5" value="Описание" style="shape=partialRectangle;html=1;whiteSpace=wrap;connectable=0;strokeColor=inherit;overflow=hidden;fillColor=none;top=0;left=0;bottom=0;right=0;pointerEvents=1;fontSize=16;" parent="iIbDxP8CMEq-jojsq5NS-2" vertex="1">
          <mxGeometry x="320" width="230" height="60" as="geometry">
            <mxRectangle width="230" height="60" as="alternateBounds" />
          </mxGeometry>
        </mxCell>
        <mxCell id="iIbDxP8CMEq-jojsq5NS-14" value="Обязательность параметра" style="shape=partialRectangle;html=1;whiteSpace=wrap;connectable=0;strokeColor=inherit;overflow=hidden;fillColor=none;top=0;left=0;bottom=0;right=0;pointerEvents=1;fontSize=16;" parent="iIbDxP8CMEq-jojsq5NS-2" vertex="1">
          <mxGeometry x="550" width="150" height="60" as="geometry">
            <mxRectangle width="150" height="60" as="alternateBounds" />
          </mxGeometry>
        </mxCell>
        <mxCell id="iIbDxP8CMEq-jojsq5NS-6" value="" style="shape=tableRow;horizontal=0;startSize=0;swimlaneHead=0;swimlaneBody=0;strokeColor=inherit;top=0;left=0;bottom=0;right=0;collapsible=0;dropTarget=0;fillColor=none;points=[[0,0.5],[1,0.5]];portConstraint=eastwest;fontSize=16;" parent="iIbDxP8CMEq-jojsq5NS-1" vertex="1">
          <mxGeometry y="90" width="700" height="60" as="geometry" />
        </mxCell>
        <mxCell id="iIbDxP8CMEq-jojsq5NS-7" value="&lt;meta charset=&quot;utf-8&quot;&gt;&lt;span style=&quot;color: rgb(0, 0, 0); font-family: Helvetica; font-size: 16px; font-style: normal; font-variant-ligatures: normal; font-variant-caps: normal; font-weight: 400; letter-spacing: normal; orphans: 2; text-align: center; text-indent: 0px; text-transform: none; widows: 2; word-spacing: 0px; -webkit-text-stroke-width: 0px; white-space: normal; background-color: rgb(251, 251, 251); text-decoration-thickness: initial; text-decoration-style: initial; text-decoration-color: initial; display: inline !important; float: none;&quot;&gt;list_name&lt;/span&gt;" style="shape=partialRectangle;html=1;whiteSpace=wrap;connectable=0;strokeColor=inherit;overflow=hidden;fillColor=none;top=0;left=0;bottom=0;right=0;pointerEvents=1;fontSize=16;" parent="iIbDxP8CMEq-jojsq5NS-6" vertex="1">
          <mxGeometry width="160" height="60" as="geometry">
            <mxRectangle width="160" height="60" as="alternateBounds" />
          </mxGeometry>
        </mxCell>
        <mxCell id="iIbDxP8CMEq-jojsq5NS-8" value="string" style="shape=partialRectangle;html=1;whiteSpace=wrap;connectable=0;strokeColor=inherit;overflow=hidden;fillColor=none;top=0;left=0;bottom=0;right=0;pointerEvents=1;fontSize=16;" parent="iIbDxP8CMEq-jojsq5NS-6" vertex="1">
          <mxGeometry x="160" width="160" height="60" as="geometry">
            <mxRectangle width="160" height="60" as="alternateBounds" />
          </mxGeometry>
        </mxCell>
        <mxCell id="iIbDxP8CMEq-jojsq5NS-9" value="Название создаваемого списка" style="shape=partialRectangle;html=1;whiteSpace=wrap;connectable=0;strokeColor=inherit;overflow=hidden;fillColor=none;top=0;left=0;bottom=0;right=0;pointerEvents=1;fontSize=16;" parent="iIbDxP8CMEq-jojsq5NS-6" vertex="1">
          <mxGeometry x="320" width="230" height="60" as="geometry">
            <mxRectangle width="230" height="60" as="alternateBounds" />
          </mxGeometry>
        </mxCell>
        <mxCell id="iIbDxP8CMEq-jojsq5NS-15" value="Да" style="shape=partialRectangle;html=1;whiteSpace=wrap;connectable=0;strokeColor=inherit;overflow=hidden;fillColor=none;top=0;left=0;bottom=0;right=0;pointerEvents=1;fontSize=16;" parent="iIbDxP8CMEq-jojsq5NS-6" vertex="1">
          <mxGeometry x="550" width="150" height="60" as="geometry">
            <mxRectangle width="150" height="60" as="alternateBounds" />
          </mxGeometry>
        </mxCell>
        <mxCell id="iIbDxP8CMEq-jojsq5NS-10" value="" style="shape=tableRow;horizontal=0;startSize=0;swimlaneHead=0;swimlaneBody=0;strokeColor=inherit;top=0;left=0;bottom=0;right=0;collapsible=0;dropTarget=0;fillColor=none;points=[[0,0.5],[1,0.5]];portConstraint=eastwest;fontSize=16;" parent="iIbDxP8CMEq-jojsq5NS-1" vertex="1">
          <mxGeometry y="150" width="700" height="60" as="geometry" />
        </mxCell>
        <mxCell id="iIbDxP8CMEq-jojsq5NS-11" value="sector_of_economy" style="shape=partialRectangle;html=1;whiteSpace=wrap;connectable=0;strokeColor=inherit;overflow=hidden;fillColor=none;top=0;left=0;bottom=0;right=0;pointerEvents=1;fontSize=16;" parent="iIbDxP8CMEq-jojsq5NS-10" vertex="1">
          <mxGeometry width="160" height="60" as="geometry">
            <mxRectangle width="160" height="60" as="alternateBounds" />
          </mxGeometry>
        </mxCell>
        <mxCell id="iIbDxP8CMEq-jojsq5NS-12" value="string" style="shape=partialRectangle;html=1;whiteSpace=wrap;connectable=0;strokeColor=inherit;overflow=hidden;fillColor=none;top=0;left=0;bottom=0;right=0;pointerEvents=1;fontSize=16;" parent="iIbDxP8CMEq-jojsq5NS-10" vertex="1">
          <mxGeometry x="160" width="160" height="60" as="geometry">
            <mxRectangle width="160" height="60" as="alternateBounds" />
          </mxGeometry>
        </mxCell>
        <mxCell id="iIbDxP8CMEq-jojsq5NS-13" value="Параметр для отбора, сектор экономики акции&amp;nbsp;" style="shape=partialRectangle;html=1;whiteSpace=wrap;connectable=0;strokeColor=inherit;overflow=hidden;fillColor=none;top=0;left=0;bottom=0;right=0;pointerEvents=1;fontSize=16;" parent="iIbDxP8CMEq-jojsq5NS-10" vertex="1">
          <mxGeometry x="320" width="230" height="60" as="geometry">
            <mxRectangle width="230" height="60" as="alternateBounds" />
          </mxGeometry>
        </mxCell>
        <mxCell id="iIbDxP8CMEq-jojsq5NS-16" value="Да" style="shape=partialRectangle;html=1;whiteSpace=wrap;connectable=0;strokeColor=inherit;overflow=hidden;fillColor=none;top=0;left=0;bottom=0;right=0;pointerEvents=1;fontSize=16;" parent="iIbDxP8CMEq-jojsq5NS-10" vertex="1">
          <mxGeometry x="550" width="150" height="60" as="geometry">
            <mxRectangle width="150" height="60" as="alternateBounds" />
          </mxGeometry>
        </mxCell>
        <mxCell id="iIbDxP8CMEq-jojsq5NS-17" style="shape=tableRow;horizontal=0;startSize=0;swimlaneHead=0;swimlaneBody=0;strokeColor=inherit;top=0;left=0;bottom=0;right=0;collapsible=0;dropTarget=0;fillColor=none;points=[[0,0.5],[1,0.5]];portConstraint=eastwest;fontSize=16;" parent="iIbDxP8CMEq-jojsq5NS-1" vertex="1">
          <mxGeometry y="210" width="700" height="80" as="geometry" />
        </mxCell>
        <mxCell id="iIbDxP8CMEq-jojsq5NS-18" value="daily_turnover_from" style="shape=partialRectangle;html=1;whiteSpace=wrap;connectable=0;strokeColor=inherit;overflow=hidden;fillColor=none;top=0;left=0;bottom=0;right=0;pointerEvents=1;fontSize=16;" parent="iIbDxP8CMEq-jojsq5NS-17" vertex="1">
          <mxGeometry width="160" height="80" as="geometry">
            <mxRectangle width="160" height="80" as="alternateBounds" />
          </mxGeometry>
        </mxCell>
        <mxCell id="iIbDxP8CMEq-jojsq5NS-19" value="long int" style="shape=partialRectangle;html=1;whiteSpace=wrap;connectable=0;strokeColor=inherit;overflow=hidden;fillColor=none;top=0;left=0;bottom=0;right=0;pointerEvents=1;fontSize=16;" parent="iIbDxP8CMEq-jojsq5NS-17" vertex="1">
          <mxGeometry x="160" width="160" height="80" as="geometry">
            <mxRectangle width="160" height="80" as="alternateBounds" />
          </mxGeometry>
        </mxCell>
        <mxCell id="iIbDxP8CMEq-jojsq5NS-20" value="Параметр для отбора, нижняя граница дневного оборота по акции" style="shape=partialRectangle;html=1;whiteSpace=wrap;connectable=0;strokeColor=inherit;overflow=hidden;fillColor=none;top=0;left=0;bottom=0;right=0;pointerEvents=1;fontSize=16;" parent="iIbDxP8CMEq-jojsq5NS-17" vertex="1">
          <mxGeometry x="320" width="230" height="80" as="geometry">
            <mxRectangle width="230" height="80" as="alternateBounds" />
          </mxGeometry>
        </mxCell>
        <mxCell id="iIbDxP8CMEq-jojsq5NS-21" value="Да" style="shape=partialRectangle;html=1;whiteSpace=wrap;connectable=0;strokeColor=inherit;overflow=hidden;fillColor=none;top=0;left=0;bottom=0;right=0;pointerEvents=1;fontSize=16;" parent="iIbDxP8CMEq-jojsq5NS-17" vertex="1">
          <mxGeometry x="550" width="150" height="80" as="geometry">
            <mxRectangle width="150" height="80" as="alternateBounds" />
          </mxGeometry>
        </mxCell>
        <mxCell id="iIbDxP8CMEq-jojsq5NS-22" style="shape=tableRow;horizontal=0;startSize=0;swimlaneHead=0;swimlaneBody=0;strokeColor=inherit;top=0;left=0;bottom=0;right=0;collapsible=0;dropTarget=0;fillColor=none;points=[[0,0.5],[1,0.5]];portConstraint=eastwest;fontSize=16;" parent="iIbDxP8CMEq-jojsq5NS-1" vertex="1">
          <mxGeometry y="290" width="700" height="80" as="geometry" />
        </mxCell>
        <mxCell id="iIbDxP8CMEq-jojsq5NS-23" value="daily_turnover_to" style="shape=partialRectangle;html=1;whiteSpace=wrap;connectable=0;strokeColor=inherit;overflow=hidden;fillColor=none;top=0;left=0;bottom=0;right=0;pointerEvents=1;fontSize=16;" parent="iIbDxP8CMEq-jojsq5NS-22" vertex="1">
          <mxGeometry width="160" height="80" as="geometry">
            <mxRectangle width="160" height="80" as="alternateBounds" />
          </mxGeometry>
        </mxCell>
        <mxCell id="iIbDxP8CMEq-jojsq5NS-24" value="long int" style="shape=partialRectangle;html=1;whiteSpace=wrap;connectable=0;strokeColor=inherit;overflow=hidden;fillColor=none;top=0;left=0;bottom=0;right=0;pointerEvents=1;fontSize=16;" parent="iIbDxP8CMEq-jojsq5NS-22" vertex="1">
          <mxGeometry x="160" width="160" height="80" as="geometry">
            <mxRectangle width="160" height="80" as="alternateBounds" />
          </mxGeometry>
        </mxCell>
        <mxCell id="iIbDxP8CMEq-jojsq5NS-25" value="Параметр для отбора, верхняя граница дневного оборота по акции" style="shape=partialRectangle;html=1;whiteSpace=wrap;connectable=0;strokeColor=inherit;overflow=hidden;fillColor=none;top=0;left=0;bottom=0;right=0;pointerEvents=1;fontSize=16;" parent="iIbDxP8CMEq-jojsq5NS-22" vertex="1">
          <mxGeometry x="320" width="230" height="80" as="geometry">
            <mxRectangle width="230" height="80" as="alternateBounds" />
          </mxGeometry>
        </mxCell>
        <mxCell id="iIbDxP8CMEq-jojsq5NS-26" value="Да" style="shape=partialRectangle;html=1;whiteSpace=wrap;connectable=0;strokeColor=inherit;overflow=hidden;fillColor=none;top=0;left=0;bottom=0;right=0;pointerEvents=1;fontSize=16;" parent="iIbDxP8CMEq-jojsq5NS-22" vertex="1">
          <mxGeometry x="550" width="150" height="80" as="geometry">
            <mxRectangle width="150" height="80" as="alternateBounds" />
          </mxGeometry>
        </mxCell>
        <mxCell id="iIbDxP8CMEq-jojsq5NS-33" value="Responce" style="shape=table;startSize=30;container=1;collapsible=0;childLayout=tableLayout;strokeColor=default;fontSize=16;" parent="1" vertex="1">
          <mxGeometry x="120" y="610" width="700" height="260" as="geometry" />
        </mxCell>
        <mxCell id="iIbDxP8CMEq-jojsq5NS-34" value="" style="shape=tableRow;horizontal=0;startSize=0;swimlaneHead=0;swimlaneBody=0;strokeColor=inherit;top=0;left=0;bottom=0;right=0;collapsible=0;dropTarget=0;fillColor=none;points=[[0,0.5],[1,0.5]];portConstraint=eastwest;fontSize=16;" parent="iIbDxP8CMEq-jojsq5NS-33" vertex="1">
          <mxGeometry y="30" width="700" height="83" as="geometry" />
        </mxCell>
        <mxCell id="iIbDxP8CMEq-jojsq5NS-35" value="Название параметра" style="shape=partialRectangle;html=1;whiteSpace=wrap;connectable=0;strokeColor=inherit;overflow=hidden;fillColor=none;top=0;left=0;bottom=0;right=0;pointerEvents=1;fontSize=16;" parent="iIbDxP8CMEq-jojsq5NS-34" vertex="1">
          <mxGeometry width="160" height="83" as="geometry">
            <mxRectangle width="160" height="83" as="alternateBounds" />
          </mxGeometry>
        </mxCell>
        <mxCell id="iIbDxP8CMEq-jojsq5NS-36" value="Тип данных" style="shape=partialRectangle;html=1;whiteSpace=wrap;connectable=0;strokeColor=inherit;overflow=hidden;fillColor=none;top=0;left=0;bottom=0;right=0;pointerEvents=1;fontSize=16;" parent="iIbDxP8CMEq-jojsq5NS-34" vertex="1">
          <mxGeometry x="160" width="160" height="83" as="geometry">
            <mxRectangle width="160" height="83" as="alternateBounds" />
          </mxGeometry>
        </mxCell>
        <mxCell id="iIbDxP8CMEq-jojsq5NS-37" value="Описание" style="shape=partialRectangle;html=1;whiteSpace=wrap;connectable=0;strokeColor=inherit;overflow=hidden;fillColor=none;top=0;left=0;bottom=0;right=0;pointerEvents=1;fontSize=16;" parent="iIbDxP8CMEq-jojsq5NS-34" vertex="1">
          <mxGeometry x="320" width="230" height="83" as="geometry">
            <mxRectangle width="230" height="83" as="alternateBounds" />
          </mxGeometry>
        </mxCell>
        <mxCell id="iIbDxP8CMEq-jojsq5NS-46" value="Обязательность параметра" style="shape=partialRectangle;html=1;whiteSpace=wrap;connectable=0;strokeColor=inherit;overflow=hidden;fillColor=none;top=0;left=0;bottom=0;right=0;pointerEvents=1;fontSize=16;" parent="iIbDxP8CMEq-jojsq5NS-34" vertex="1">
          <mxGeometry x="550" width="150" height="83" as="geometry">
            <mxRectangle width="150" height="83" as="alternateBounds" />
          </mxGeometry>
        </mxCell>
        <mxCell id="iIbDxP8CMEq-jojsq5NS-38" value="" style="shape=tableRow;horizontal=0;startSize=0;swimlaneHead=0;swimlaneBody=0;strokeColor=inherit;top=0;left=0;bottom=0;right=0;collapsible=0;dropTarget=0;fillColor=none;points=[[0,0.5],[1,0.5]];portConstraint=eastwest;fontSize=16;" parent="iIbDxP8CMEq-jojsq5NS-33" vertex="1">
          <mxGeometry y="113" width="700" height="60" as="geometry" />
        </mxCell>
        <mxCell id="iIbDxP8CMEq-jojsq5NS-39" value="list_name" style="shape=partialRectangle;html=1;whiteSpace=wrap;connectable=0;strokeColor=inherit;overflow=hidden;fillColor=none;top=0;left=0;bottom=0;right=0;pointerEvents=1;fontSize=16;" parent="iIbDxP8CMEq-jojsq5NS-38" vertex="1">
          <mxGeometry width="160" height="60" as="geometry">
            <mxRectangle width="160" height="60" as="alternateBounds" />
          </mxGeometry>
        </mxCell>
        <mxCell id="iIbDxP8CMEq-jojsq5NS-40" value="string" style="shape=partialRectangle;html=1;whiteSpace=wrap;connectable=0;strokeColor=inherit;overflow=hidden;fillColor=none;top=0;left=0;bottom=0;right=0;pointerEvents=1;fontSize=16;" parent="iIbDxP8CMEq-jojsq5NS-38" vertex="1">
          <mxGeometry x="160" width="160" height="60" as="geometry">
            <mxRectangle width="160" height="60" as="alternateBounds" />
          </mxGeometry>
        </mxCell>
        <mxCell id="iIbDxP8CMEq-jojsq5NS-41" value="Название созданного списка" style="shape=partialRectangle;html=1;whiteSpace=wrap;connectable=0;strokeColor=inherit;overflow=hidden;fillColor=none;top=0;left=0;bottom=0;right=0;pointerEvents=1;fontSize=16;" parent="iIbDxP8CMEq-jojsq5NS-38" vertex="1">
          <mxGeometry x="320" width="230" height="60" as="geometry">
            <mxRectangle width="230" height="60" as="alternateBounds" />
          </mxGeometry>
        </mxCell>
        <mxCell id="iIbDxP8CMEq-jojsq5NS-47" value="Да" style="shape=partialRectangle;html=1;whiteSpace=wrap;connectable=0;strokeColor=inherit;overflow=hidden;fillColor=none;top=0;left=0;bottom=0;right=0;pointerEvents=1;fontSize=16;" parent="iIbDxP8CMEq-jojsq5NS-38" vertex="1">
          <mxGeometry x="550" width="150" height="60" as="geometry">
            <mxRectangle width="150" height="60" as="alternateBounds" />
          </mxGeometry>
        </mxCell>
        <mxCell id="iIbDxP8CMEq-jojsq5NS-42" value="" style="shape=tableRow;horizontal=0;startSize=0;swimlaneHead=0;swimlaneBody=0;strokeColor=inherit;top=0;left=0;bottom=0;right=0;collapsible=0;dropTarget=0;fillColor=none;points=[[0,0.5],[1,0.5]];portConstraint=eastwest;fontSize=16;" parent="iIbDxP8CMEq-jojsq5NS-33" vertex="1">
          <mxGeometry y="173" width="700" height="87" as="geometry" />
        </mxCell>
        <mxCell id="iIbDxP8CMEq-jojsq5NS-43" value="shares_list" style="shape=partialRectangle;html=1;whiteSpace=wrap;connectable=0;strokeColor=inherit;overflow=hidden;fillColor=none;top=0;left=0;bottom=0;right=0;pointerEvents=1;fontSize=16;" parent="iIbDxP8CMEq-jojsq5NS-42" vertex="1">
          <mxGeometry width="160" height="87" as="geometry">
            <mxRectangle width="160" height="87" as="alternateBounds" />
          </mxGeometry>
        </mxCell>
        <mxCell id="iIbDxP8CMEq-jojsq5NS-44" value="object" style="shape=partialRectangle;html=1;whiteSpace=wrap;connectable=0;strokeColor=inherit;overflow=hidden;fillColor=none;top=0;left=0;bottom=0;right=0;pointerEvents=1;fontSize=16;" parent="iIbDxP8CMEq-jojsq5NS-42" vertex="1">
          <mxGeometry x="160" width="160" height="87" as="geometry">
            <mxRectangle width="160" height="87" as="alternateBounds" />
          </mxGeometry>
        </mxCell>
        <mxCell id="iIbDxP8CMEq-jojsq5NS-45" value="Объект со список акций и последней ценой&lt;div&gt;В виде:&lt;br&gt;&lt;div&gt;share_name : last_price&lt;/div&gt;&lt;/div&gt;" style="shape=partialRectangle;html=1;whiteSpace=wrap;connectable=0;strokeColor=inherit;overflow=hidden;fillColor=none;top=0;left=0;bottom=0;right=0;pointerEvents=1;fontSize=16;" parent="iIbDxP8CMEq-jojsq5NS-42" vertex="1">
          <mxGeometry x="320" width="230" height="87" as="geometry">
            <mxRectangle width="230" height="87" as="alternateBounds" />
          </mxGeometry>
        </mxCell>
        <mxCell id="iIbDxP8CMEq-jojsq5NS-48" value="Да" style="shape=partialRectangle;html=1;whiteSpace=wrap;connectable=0;strokeColor=inherit;overflow=hidden;fillColor=none;top=0;left=0;bottom=0;right=0;pointerEvents=1;fontSize=16;" parent="iIbDxP8CMEq-jojsq5NS-42" vertex="1">
          <mxGeometry x="550" width="150" height="87" as="geometry">
            <mxRectangle width="150" height="87" as="alternateBounds" />
          </mxGeometry>
        </mxCell>
        <mxCell id="iIbDxP8CMEq-jojsq5NS-63" value="&lt;font style=&quot;font-size: 24px;&quot;&gt;REST запрос на создание нового списка&lt;/font&gt;" style="text;html=1;align=left;verticalAlign=middle;whiteSpace=wrap;rounded=0;" parent="1" vertex="1">
          <mxGeometry x="120" y="40" width="530" height="30" as="geometry" />
        </mxCell>
        <mxCell id="yfqjEoqy96MvMvpL_rSr-1" value="&lt;font style=&quot;font-size: 18px;&quot;&gt;POST&amp;nbsp;&lt;/font&gt;&lt;div&gt;&lt;font style=&quot;font-size: 18px;&quot;&gt;Адрес&amp;nbsp; www.domain.com/online_terminal/add_list&lt;/font&gt;&lt;/div&gt;" style="text;html=1;align=left;verticalAlign=middle;whiteSpace=wrap;rounded=0;" vertex="1" parent="1">
          <mxGeometry x="120" y="100" width="470" height="40" as="geometry" />
        </mxCell>
        <mxCell id="yfqjEoqy96MvMvpL_rSr-2" value="&lt;span style=&quot;font-size: 18px;&quot;&gt;Code 200 Ok&lt;/span&gt;" style="text;html=1;align=left;verticalAlign=middle;whiteSpace=wrap;rounded=0;" vertex="1" parent="1">
          <mxGeometry x="120" y="560" width="470" height="40" as="geometry" />
        </mxCell>
        <mxCell id="yfqjEoqy96MvMvpL_rSr-3" value="&lt;font style=&quot;font-size: 24px;&quot;&gt;REST запрос на получении информации о списке&lt;/font&gt;" style="text;html=1;align=left;verticalAlign=middle;whiteSpace=wrap;rounded=0;" vertex="1" parent="1">
          <mxGeometry x="120" y="960" width="650" height="30" as="geometry" />
        </mxCell>
        <mxCell id="yfqjEoqy96MvMvpL_rSr-4" value="&lt;font style=&quot;font-size: 18px;&quot;&gt;POST&amp;nbsp;&lt;/font&gt;&lt;div&gt;&lt;font style=&quot;font-size: 18px;&quot;&gt;Адрес&amp;nbsp; www.domain.com/online_terminal/list_info&lt;/font&gt;&lt;/div&gt;" style="text;html=1;align=left;verticalAlign=middle;whiteSpace=wrap;rounded=0;" vertex="1" parent="1">
          <mxGeometry x="120" y="1030" width="470" height="40" as="geometry" />
        </mxCell>
        <mxCell id="yfqjEoqy96MvMvpL_rSr-5" value="Request" style="shape=table;startSize=30;container=1;collapsible=0;childLayout=tableLayout;strokeColor=default;fontSize=16;" vertex="1" parent="1">
          <mxGeometry x="120" y="1100" width="700" height="150" as="geometry" />
        </mxCell>
        <mxCell id="yfqjEoqy96MvMvpL_rSr-6" value="" style="shape=tableRow;horizontal=0;startSize=0;swimlaneHead=0;swimlaneBody=0;strokeColor=inherit;top=0;left=0;bottom=0;right=0;collapsible=0;dropTarget=0;fillColor=none;points=[[0,0.5],[1,0.5]];portConstraint=eastwest;fontSize=16;" vertex="1" parent="yfqjEoqy96MvMvpL_rSr-5">
          <mxGeometry y="30" width="700" height="60" as="geometry" />
        </mxCell>
        <mxCell id="yfqjEoqy96MvMvpL_rSr-7" value="&lt;div&gt;Название параметра&lt;br&gt;&lt;/div&gt;" style="shape=partialRectangle;html=1;whiteSpace=wrap;connectable=0;strokeColor=inherit;overflow=hidden;fillColor=none;top=0;left=0;bottom=0;right=0;pointerEvents=1;fontSize=16;" vertex="1" parent="yfqjEoqy96MvMvpL_rSr-6">
          <mxGeometry width="160" height="60" as="geometry">
            <mxRectangle width="160" height="60" as="alternateBounds" />
          </mxGeometry>
        </mxCell>
        <mxCell id="yfqjEoqy96MvMvpL_rSr-8" value="Тип данных" style="shape=partialRectangle;html=1;whiteSpace=wrap;connectable=0;strokeColor=inherit;overflow=hidden;fillColor=none;top=0;left=0;bottom=0;right=0;pointerEvents=1;fontSize=16;" vertex="1" parent="yfqjEoqy96MvMvpL_rSr-6">
          <mxGeometry x="160" width="160" height="60" as="geometry">
            <mxRectangle width="160" height="60" as="alternateBounds" />
          </mxGeometry>
        </mxCell>
        <mxCell id="yfqjEoqy96MvMvpL_rSr-9" value="Описание" style="shape=partialRectangle;html=1;whiteSpace=wrap;connectable=0;strokeColor=inherit;overflow=hidden;fillColor=none;top=0;left=0;bottom=0;right=0;pointerEvents=1;fontSize=16;" vertex="1" parent="yfqjEoqy96MvMvpL_rSr-6">
          <mxGeometry x="320" width="230" height="60" as="geometry">
            <mxRectangle width="230" height="60" as="alternateBounds" />
          </mxGeometry>
        </mxCell>
        <mxCell id="yfqjEoqy96MvMvpL_rSr-10" value="Обязательность параметра" style="shape=partialRectangle;html=1;whiteSpace=wrap;connectable=0;strokeColor=inherit;overflow=hidden;fillColor=none;top=0;left=0;bottom=0;right=0;pointerEvents=1;fontSize=16;" vertex="1" parent="yfqjEoqy96MvMvpL_rSr-6">
          <mxGeometry x="550" width="150" height="60" as="geometry">
            <mxRectangle width="150" height="60" as="alternateBounds" />
          </mxGeometry>
        </mxCell>
        <mxCell id="yfqjEoqy96MvMvpL_rSr-11" value="" style="shape=tableRow;horizontal=0;startSize=0;swimlaneHead=0;swimlaneBody=0;strokeColor=inherit;top=0;left=0;bottom=0;right=0;collapsible=0;dropTarget=0;fillColor=none;points=[[0,0.5],[1,0.5]];portConstraint=eastwest;fontSize=16;" vertex="1" parent="yfqjEoqy96MvMvpL_rSr-5">
          <mxGeometry y="90" width="700" height="60" as="geometry" />
        </mxCell>
        <mxCell id="yfqjEoqy96MvMvpL_rSr-12" value="&lt;meta charset=&quot;utf-8&quot;&gt;&lt;span style=&quot;color: rgb(0, 0, 0); font-family: Helvetica; font-size: 16px; font-style: normal; font-variant-ligatures: normal; font-variant-caps: normal; font-weight: 400; letter-spacing: normal; orphans: 2; text-align: center; text-indent: 0px; text-transform: none; widows: 2; word-spacing: 0px; -webkit-text-stroke-width: 0px; white-space: normal; background-color: rgb(251, 251, 251); text-decoration-thickness: initial; text-decoration-style: initial; text-decoration-color: initial; display: inline !important; float: none;&quot;&gt;list_name&lt;/span&gt;" style="shape=partialRectangle;html=1;whiteSpace=wrap;connectable=0;strokeColor=inherit;overflow=hidden;fillColor=none;top=0;left=0;bottom=0;right=0;pointerEvents=1;fontSize=16;" vertex="1" parent="yfqjEoqy96MvMvpL_rSr-11">
          <mxGeometry width="160" height="60" as="geometry">
            <mxRectangle width="160" height="60" as="alternateBounds" />
          </mxGeometry>
        </mxCell>
        <mxCell id="yfqjEoqy96MvMvpL_rSr-13" value="string" style="shape=partialRectangle;html=1;whiteSpace=wrap;connectable=0;strokeColor=inherit;overflow=hidden;fillColor=none;top=0;left=0;bottom=0;right=0;pointerEvents=1;fontSize=16;" vertex="1" parent="yfqjEoqy96MvMvpL_rSr-11">
          <mxGeometry x="160" width="160" height="60" as="geometry">
            <mxRectangle width="160" height="60" as="alternateBounds" />
          </mxGeometry>
        </mxCell>
        <mxCell id="yfqjEoqy96MvMvpL_rSr-14" value="Название создаваемого списка" style="shape=partialRectangle;html=1;whiteSpace=wrap;connectable=0;strokeColor=inherit;overflow=hidden;fillColor=none;top=0;left=0;bottom=0;right=0;pointerEvents=1;fontSize=16;" vertex="1" parent="yfqjEoqy96MvMvpL_rSr-11">
          <mxGeometry x="320" width="230" height="60" as="geometry">
            <mxRectangle width="230" height="60" as="alternateBounds" />
          </mxGeometry>
        </mxCell>
        <mxCell id="yfqjEoqy96MvMvpL_rSr-15" value="Да" style="shape=partialRectangle;html=1;whiteSpace=wrap;connectable=0;strokeColor=inherit;overflow=hidden;fillColor=none;top=0;left=0;bottom=0;right=0;pointerEvents=1;fontSize=16;" vertex="1" parent="yfqjEoqy96MvMvpL_rSr-11">
          <mxGeometry x="550" width="150" height="60" as="geometry">
            <mxRectangle width="150" height="60" as="alternateBounds" />
          </mxGeometry>
        </mxCell>
        <mxCell id="yfqjEoqy96MvMvpL_rSr-31" value="&lt;span style=&quot;font-size: 18px;&quot;&gt;Code 200 Ok&lt;/span&gt;" style="text;html=1;align=left;verticalAlign=middle;whiteSpace=wrap;rounded=0;" vertex="1" parent="1">
          <mxGeometry x="120" y="1290" width="470" height="40" as="geometry" />
        </mxCell>
        <mxCell id="yfqjEoqy96MvMvpL_rSr-58" value="Request" style="shape=table;startSize=30;container=1;collapsible=0;childLayout=tableLayout;strokeColor=default;fontSize=16;" vertex="1" parent="1">
          <mxGeometry x="120" y="1330" width="700" height="370" as="geometry" />
        </mxCell>
        <mxCell id="yfqjEoqy96MvMvpL_rSr-59" value="" style="shape=tableRow;horizontal=0;startSize=0;swimlaneHead=0;swimlaneBody=0;strokeColor=inherit;top=0;left=0;bottom=0;right=0;collapsible=0;dropTarget=0;fillColor=none;points=[[0,0.5],[1,0.5]];portConstraint=eastwest;fontSize=16;" vertex="1" parent="yfqjEoqy96MvMvpL_rSr-58">
          <mxGeometry y="30" width="700" height="60" as="geometry" />
        </mxCell>
        <mxCell id="yfqjEoqy96MvMvpL_rSr-60" value="&lt;div&gt;Название параметра&lt;br&gt;&lt;/div&gt;" style="shape=partialRectangle;html=1;whiteSpace=wrap;connectable=0;strokeColor=inherit;overflow=hidden;fillColor=none;top=0;left=0;bottom=0;right=0;pointerEvents=1;fontSize=16;" vertex="1" parent="yfqjEoqy96MvMvpL_rSr-59">
          <mxGeometry width="160" height="60" as="geometry">
            <mxRectangle width="160" height="60" as="alternateBounds" />
          </mxGeometry>
        </mxCell>
        <mxCell id="yfqjEoqy96MvMvpL_rSr-61" value="Тип данных" style="shape=partialRectangle;html=1;whiteSpace=wrap;connectable=0;strokeColor=inherit;overflow=hidden;fillColor=none;top=0;left=0;bottom=0;right=0;pointerEvents=1;fontSize=16;" vertex="1" parent="yfqjEoqy96MvMvpL_rSr-59">
          <mxGeometry x="160" width="160" height="60" as="geometry">
            <mxRectangle width="160" height="60" as="alternateBounds" />
          </mxGeometry>
        </mxCell>
        <mxCell id="yfqjEoqy96MvMvpL_rSr-62" value="Описание" style="shape=partialRectangle;html=1;whiteSpace=wrap;connectable=0;strokeColor=inherit;overflow=hidden;fillColor=none;top=0;left=0;bottom=0;right=0;pointerEvents=1;fontSize=16;" vertex="1" parent="yfqjEoqy96MvMvpL_rSr-59">
          <mxGeometry x="320" width="230" height="60" as="geometry">
            <mxRectangle width="230" height="60" as="alternateBounds" />
          </mxGeometry>
        </mxCell>
        <mxCell id="yfqjEoqy96MvMvpL_rSr-63" value="Обязательность параметра" style="shape=partialRectangle;html=1;whiteSpace=wrap;connectable=0;strokeColor=inherit;overflow=hidden;fillColor=none;top=0;left=0;bottom=0;right=0;pointerEvents=1;fontSize=16;" vertex="1" parent="yfqjEoqy96MvMvpL_rSr-59">
          <mxGeometry x="550" width="150" height="60" as="geometry">
            <mxRectangle width="150" height="60" as="alternateBounds" />
          </mxGeometry>
        </mxCell>
        <mxCell id="yfqjEoqy96MvMvpL_rSr-64" value="" style="shape=tableRow;horizontal=0;startSize=0;swimlaneHead=0;swimlaneBody=0;strokeColor=inherit;top=0;left=0;bottom=0;right=0;collapsible=0;dropTarget=0;fillColor=none;points=[[0,0.5],[1,0.5]];portConstraint=eastwest;fontSize=16;" vertex="1" parent="yfqjEoqy96MvMvpL_rSr-58">
          <mxGeometry y="90" width="700" height="60" as="geometry" />
        </mxCell>
        <mxCell id="yfqjEoqy96MvMvpL_rSr-65" value="number_of_items" style="shape=partialRectangle;html=1;whiteSpace=wrap;connectable=0;strokeColor=inherit;overflow=hidden;fillColor=none;top=0;left=0;bottom=0;right=0;pointerEvents=1;fontSize=16;" vertex="1" parent="yfqjEoqy96MvMvpL_rSr-64">
          <mxGeometry width="160" height="60" as="geometry">
            <mxRectangle width="160" height="60" as="alternateBounds" />
          </mxGeometry>
        </mxCell>
        <mxCell id="yfqjEoqy96MvMvpL_rSr-66" value="int" style="shape=partialRectangle;html=1;whiteSpace=wrap;connectable=0;strokeColor=inherit;overflow=hidden;fillColor=none;top=0;left=0;bottom=0;right=0;pointerEvents=1;fontSize=16;" vertex="1" parent="yfqjEoqy96MvMvpL_rSr-64">
          <mxGeometry x="160" width="160" height="60" as="geometry">
            <mxRectangle width="160" height="60" as="alternateBounds" />
          </mxGeometry>
        </mxCell>
        <mxCell id="yfqjEoqy96MvMvpL_rSr-67" value="Количество акций в списке" style="shape=partialRectangle;html=1;whiteSpace=wrap;connectable=0;strokeColor=inherit;overflow=hidden;fillColor=none;top=0;left=0;bottom=0;right=0;pointerEvents=1;fontSize=16;" vertex="1" parent="yfqjEoqy96MvMvpL_rSr-64">
          <mxGeometry x="320" width="230" height="60" as="geometry">
            <mxRectangle width="230" height="60" as="alternateBounds" />
          </mxGeometry>
        </mxCell>
        <mxCell id="yfqjEoqy96MvMvpL_rSr-68" value="Да" style="shape=partialRectangle;html=1;whiteSpace=wrap;connectable=0;strokeColor=inherit;overflow=hidden;fillColor=none;top=0;left=0;bottom=0;right=0;pointerEvents=1;fontSize=16;" vertex="1" parent="yfqjEoqy96MvMvpL_rSr-64">
          <mxGeometry x="550" width="150" height="60" as="geometry">
            <mxRectangle width="150" height="60" as="alternateBounds" />
          </mxGeometry>
        </mxCell>
        <mxCell id="yfqjEoqy96MvMvpL_rSr-69" value="" style="shape=tableRow;horizontal=0;startSize=0;swimlaneHead=0;swimlaneBody=0;strokeColor=inherit;top=0;left=0;bottom=0;right=0;collapsible=0;dropTarget=0;fillColor=none;points=[[0,0.5],[1,0.5]];portConstraint=eastwest;fontSize=16;" vertex="1" parent="yfqjEoqy96MvMvpL_rSr-58">
          <mxGeometry y="150" width="700" height="60" as="geometry" />
        </mxCell>
        <mxCell id="yfqjEoqy96MvMvpL_rSr-70" value="sector_of_economy" style="shape=partialRectangle;html=1;whiteSpace=wrap;connectable=0;strokeColor=inherit;overflow=hidden;fillColor=none;top=0;left=0;bottom=0;right=0;pointerEvents=1;fontSize=16;" vertex="1" parent="yfqjEoqy96MvMvpL_rSr-69">
          <mxGeometry width="160" height="60" as="geometry">
            <mxRectangle width="160" height="60" as="alternateBounds" />
          </mxGeometry>
        </mxCell>
        <mxCell id="yfqjEoqy96MvMvpL_rSr-71" value="string" style="shape=partialRectangle;html=1;whiteSpace=wrap;connectable=0;strokeColor=inherit;overflow=hidden;fillColor=none;top=0;left=0;bottom=0;right=0;pointerEvents=1;fontSize=16;" vertex="1" parent="yfqjEoqy96MvMvpL_rSr-69">
          <mxGeometry x="160" width="160" height="60" as="geometry">
            <mxRectangle width="160" height="60" as="alternateBounds" />
          </mxGeometry>
        </mxCell>
        <mxCell id="yfqjEoqy96MvMvpL_rSr-72" value="Параметр для отбора, сектор экономики акции&amp;nbsp;" style="shape=partialRectangle;html=1;whiteSpace=wrap;connectable=0;strokeColor=inherit;overflow=hidden;fillColor=none;top=0;left=0;bottom=0;right=0;pointerEvents=1;fontSize=16;" vertex="1" parent="yfqjEoqy96MvMvpL_rSr-69">
          <mxGeometry x="320" width="230" height="60" as="geometry">
            <mxRectangle width="230" height="60" as="alternateBounds" />
          </mxGeometry>
        </mxCell>
        <mxCell id="yfqjEoqy96MvMvpL_rSr-73" value="Да" style="shape=partialRectangle;html=1;whiteSpace=wrap;connectable=0;strokeColor=inherit;overflow=hidden;fillColor=none;top=0;left=0;bottom=0;right=0;pointerEvents=1;fontSize=16;" vertex="1" parent="yfqjEoqy96MvMvpL_rSr-69">
          <mxGeometry x="550" width="150" height="60" as="geometry">
            <mxRectangle width="150" height="60" as="alternateBounds" />
          </mxGeometry>
        </mxCell>
        <mxCell id="yfqjEoqy96MvMvpL_rSr-74" style="shape=tableRow;horizontal=0;startSize=0;swimlaneHead=0;swimlaneBody=0;strokeColor=inherit;top=0;left=0;bottom=0;right=0;collapsible=0;dropTarget=0;fillColor=none;points=[[0,0.5],[1,0.5]];portConstraint=eastwest;fontSize=16;" vertex="1" parent="yfqjEoqy96MvMvpL_rSr-58">
          <mxGeometry y="210" width="700" height="80" as="geometry" />
        </mxCell>
        <mxCell id="yfqjEoqy96MvMvpL_rSr-75" value="daily_turnover_from" style="shape=partialRectangle;html=1;whiteSpace=wrap;connectable=0;strokeColor=inherit;overflow=hidden;fillColor=none;top=0;left=0;bottom=0;right=0;pointerEvents=1;fontSize=16;" vertex="1" parent="yfqjEoqy96MvMvpL_rSr-74">
          <mxGeometry width="160" height="80" as="geometry">
            <mxRectangle width="160" height="80" as="alternateBounds" />
          </mxGeometry>
        </mxCell>
        <mxCell id="yfqjEoqy96MvMvpL_rSr-76" value="long int" style="shape=partialRectangle;html=1;whiteSpace=wrap;connectable=0;strokeColor=inherit;overflow=hidden;fillColor=none;top=0;left=0;bottom=0;right=0;pointerEvents=1;fontSize=16;" vertex="1" parent="yfqjEoqy96MvMvpL_rSr-74">
          <mxGeometry x="160" width="160" height="80" as="geometry">
            <mxRectangle width="160" height="80" as="alternateBounds" />
          </mxGeometry>
        </mxCell>
        <mxCell id="yfqjEoqy96MvMvpL_rSr-77" value="Параметр для отбора, нижняя граница дневного оборота по акции" style="shape=partialRectangle;html=1;whiteSpace=wrap;connectable=0;strokeColor=inherit;overflow=hidden;fillColor=none;top=0;left=0;bottom=0;right=0;pointerEvents=1;fontSize=16;" vertex="1" parent="yfqjEoqy96MvMvpL_rSr-74">
          <mxGeometry x="320" width="230" height="80" as="geometry">
            <mxRectangle width="230" height="80" as="alternateBounds" />
          </mxGeometry>
        </mxCell>
        <mxCell id="yfqjEoqy96MvMvpL_rSr-78" value="Да" style="shape=partialRectangle;html=1;whiteSpace=wrap;connectable=0;strokeColor=inherit;overflow=hidden;fillColor=none;top=0;left=0;bottom=0;right=0;pointerEvents=1;fontSize=16;" vertex="1" parent="yfqjEoqy96MvMvpL_rSr-74">
          <mxGeometry x="550" width="150" height="80" as="geometry">
            <mxRectangle width="150" height="80" as="alternateBounds" />
          </mxGeometry>
        </mxCell>
        <mxCell id="yfqjEoqy96MvMvpL_rSr-79" style="shape=tableRow;horizontal=0;startSize=0;swimlaneHead=0;swimlaneBody=0;strokeColor=inherit;top=0;left=0;bottom=0;right=0;collapsible=0;dropTarget=0;fillColor=none;points=[[0,0.5],[1,0.5]];portConstraint=eastwest;fontSize=16;" vertex="1" parent="yfqjEoqy96MvMvpL_rSr-58">
          <mxGeometry y="290" width="700" height="80" as="geometry" />
        </mxCell>
        <mxCell id="yfqjEoqy96MvMvpL_rSr-80" value="daily_turnover_to" style="shape=partialRectangle;html=1;whiteSpace=wrap;connectable=0;strokeColor=inherit;overflow=hidden;fillColor=none;top=0;left=0;bottom=0;right=0;pointerEvents=1;fontSize=16;" vertex="1" parent="yfqjEoqy96MvMvpL_rSr-79">
          <mxGeometry width="160" height="80" as="geometry">
            <mxRectangle width="160" height="80" as="alternateBounds" />
          </mxGeometry>
        </mxCell>
        <mxCell id="yfqjEoqy96MvMvpL_rSr-81" value="long int" style="shape=partialRectangle;html=1;whiteSpace=wrap;connectable=0;strokeColor=inherit;overflow=hidden;fillColor=none;top=0;left=0;bottom=0;right=0;pointerEvents=1;fontSize=16;" vertex="1" parent="yfqjEoqy96MvMvpL_rSr-79">
          <mxGeometry x="160" width="160" height="80" as="geometry">
            <mxRectangle width="160" height="80" as="alternateBounds" />
          </mxGeometry>
        </mxCell>
        <mxCell id="yfqjEoqy96MvMvpL_rSr-82" value="Параметр для отбора, верхняя граница дневного оборота по акции" style="shape=partialRectangle;html=1;whiteSpace=wrap;connectable=0;strokeColor=inherit;overflow=hidden;fillColor=none;top=0;left=0;bottom=0;right=0;pointerEvents=1;fontSize=16;" vertex="1" parent="yfqjEoqy96MvMvpL_rSr-79">
          <mxGeometry x="320" width="230" height="80" as="geometry">
            <mxRectangle width="230" height="80" as="alternateBounds" />
          </mxGeometry>
        </mxCell>
        <mxCell id="yfqjEoqy96MvMvpL_rSr-83" value="Да" style="shape=partialRectangle;html=1;whiteSpace=wrap;connectable=0;strokeColor=inherit;overflow=hidden;fillColor=none;top=0;left=0;bottom=0;right=0;pointerEvents=1;fontSize=16;" vertex="1" parent="yfqjEoqy96MvMvpL_rSr-79">
          <mxGeometry x="550" width="150" height="80" as="geometry">
            <mxRectangle width="150" height="80" as="alternateBounds" />
          </mxGeometry>
        </mxCell>
      </root>
    </mxGraphModel>
  </diagram>
</mxfile>
